<?xml version="1.0" standalone="no"?>
<!DOCTYPE svg PUBLIC "-//W3C//DTD SVG 20010904//EN"
 "http://www.w3.org/TR/2001/REC-SVG-20010904/DTD/svg10.dtd">
<svg version="1.0" xmlns="http://www.w3.org/2000/svg"
 width="512.000000pt" height="512.000000pt" viewBox="0 0 512.000000 512.000000"
 preserveAspectRatio="xMidYMid meet">

<g transform="translate(0.000000,512.000000) scale(0.100000,-0.100000)"
fill="#000000" stroke="none">
<path d="M3682 4597 c-19 -21 -22 -35 -22 -118 l0 -94 -515 -688 c-283 -378
-519 -686 -523 -683 -4 2 -38 48 -77 100 -38 53 -100 138 -137 188 l-68 91 0
92 c0 83 -2 94 -23 113 -31 29 -72 28 -102 -3 -23 -22 -25 -32 -25 -116 l0
-91 -175 -237 c-97 -130 -184 -247 -195 -261 -19 -25 -19 -25 -34 -5 -9 11
-27 43 -42 71 l-27 50 25 55 c38 80 49 130 49 227 0 59 -7 109 -20 153 -50
160 -189 300 -349 349 l-57 18 -12 60 c-32 159 -155 290 -312 332 -68 18 -175
14 -245 -10 -57 -19 -156 -81 -156 -98 0 -4 232 -317 515 -697 283 -379 515
-694 515 -699 0 -11 -442 -605 -452 -606 -6 0 -499 654 -551 731 -33 48 -83
79 -129 79 -80 0 -95 -14 -316 -312 l-207 -279 3 -47 c4 -54 46 -283 65 -357
l13 -50 472 -5 472 -5 -215 -287 -214 -288 70 0 c61 0 73 -3 94 -25 32 -31 32
-69 0 -100 l-24 -25 574 0 575 0 0 175 c0 173 0 176 25 200 31 32 69 32 100 0
24 -23 25 -28 25 -171 l0 -148 89 87 c49 48 96 87 104 87 44 0 87 -42 87 -86
0 -9 -28 -45 -62 -80 l-61 -64 768 0 768 0 -21 23 c-29 31 -29 77 1 105 19 18
37 22 109 24 l86 3 -314 420 -314 420 501 3 502 2 -47 50 c-53 57 -59 88 -21
125 42 43 71 34 152 -47 l73 -72 123 122 c136 134 156 144 202 97 47 -46 36
-76 -67 -181 l-92 -94 231 0 231 0 6 33 c12 69 25 208 31 337 l6 135 -202 270
c-111 149 -406 543 -654 876 l-453 606 -4 103 c-3 93 -5 103 -27 121 -32 26
-73 24 -99 -4z"/>
</g>
</svg>
